<svg width="391.6" height="139.502" viewBox="0 0 391.6 139.502" xmlns="http://www.w3.org/2000/svg"><g id="svgGroup" stroke-linecap="round" fill-rule="evenodd" font-size="9pt" stroke="#000000" stroke-width="0.25mm" fill="#ff9900" style="stroke:#000000;stroke-width:0.25mm;fill:#ff9900"><path d="M 230.8 93.101 L 231.1 91.201 Q 223.2 94.501 215.6 94.501 A 48.975 48.975 0 0 1 205.384 93.481 A 38.164 38.164 0 0 1 195.9 90.151 Q 187.4 85.801 182.7 77.801 A 33.973 33.973 0 0 1 178.372 64.958 A 43.341 43.341 0 0 1 178 59.201 Q 178 44.401 183.6 33.051 A 45.114 45.114 0 0 1 191.876 21.241 A 40.462 40.462 0 0 1 199.05 15.451 Q 208.9 9.201 221.1 9.201 Q 232.8 9.201 238.65 14.651 Q 244.5 20.101 244.5 29.101 A 26.357 26.357 0 0 1 244.246 32.88 Q 243.761 36.222 242.35 38.551 A 7.942 7.942 0 0 1 240.566 40.644 Q 238.875 42.01 236.517 42.096 A 8.771 8.771 0 0 1 236.2 42.101 A 9.155 9.155 0 0 1 234.395 41.933 Q 233.279 41.709 232.405 41.184 A 5.331 5.331 0 0 1 231.85 40.801 A 4.222 4.222 0 0 1 230.22 37.701 A 5.975 5.975 0 0 1 230.2 37.201 Q 230.2 36.201 230.6 33.801 Q 231.2 31.001 231.2 29.401 A 11.088 11.088 0 0 0 230.899 26.738 A 7.434 7.434 0 0 0 228.65 22.901 Q 226.293 20.775 220.987 20.614 A 29.317 29.317 0 0 0 220.1 20.601 Q 212.8 20.601 206.55 24.801 A 25.856 25.856 0 0 0 199.992 31.252 A 35.791 35.791 0 0 0 196.5 37.351 Q 192.7 45.701 192.7 57.401 A 35.397 35.397 0 0 0 193.405 64.689 Q 194.849 71.55 199.25 75.951 A 21.06 21.06 0 0 0 208.316 81.202 Q 211.588 82.176 215.512 82.42 A 43.409 43.409 0 0 0 218.2 82.501 A 34.348 34.348 0 0 0 227.045 81.294 A 44.478 44.478 0 0 0 232.6 79.401 L 234 67.201 L 223.8 67.201 A 9.314 9.314 0 0 1 222.14 67.063 Q 220.52 66.769 219.5 65.851 A 4.017 4.017 0 0 1 218.449 64.268 Q 218 63.097 218 61.401 Q 218 59.061 219.048 57.559 A 4.984 4.984 0 0 1 219.5 57.001 A 4.983 4.983 0 0 1 222.589 55.459 A 7.004 7.004 0 0 1 223.5 55.401 L 242.2 55.401 A 5.474 5.474 0 0 1 244.069 55.709 A 4.797 4.797 0 0 1 245.85 56.851 A 3.996 3.996 0 0 1 246.934 58.909 Q 247.107 59.735 247.025 60.744 A 8.873 8.873 0 0 1 247 61.001 A 61.064 61.064 0 0 1 246.838 62.486 Q 246.381 66.32 245 75.501 L 243.9 83.101 A 391.083 391.083 0 0 1 251.092 77.828 Q 254.506 75.387 257.617 73.293 A 232.777 232.777 0 0 1 258.5 72.701 A 7.207 7.207 0 0 1 259.283 72.279 Q 260.113 71.901 260.8 71.901 A 2.186 2.186 0 0 1 262.536 72.711 A 3.273 3.273 0 0 1 262.85 73.151 Q 263.6 74.401 263.6 76.301 Q 263.6 77.798 263.303 78.872 A 4.943 4.943 0 0 1 262.9 79.901 Q 262.2 81.201 260.7 82.201 Q 254.8 86.101 241.9 95.001 Q 239.343 108.572 235.798 118.36 A 76.186 76.186 0 0 1 231.8 127.601 A 32.956 32.956 0 0 1 228.384 132.946 Q 226.176 135.712 223.645 137.31 A 13.86 13.86 0 0 1 216.1 139.501 A 13.461 13.461 0 0 1 212.27 138.981 A 10.533 10.533 0 0 1 207.8 136.351 A 10.575 10.575 0 0 1 204.713 129.945 A 14.662 14.662 0 0 1 204.6 128.101 A 22.583 22.583 0 0 1 205.781 120.995 A 27.337 27.337 0 0 1 206.7 118.601 A 26.39 26.39 0 0 1 208.575 115.124 Q 210.777 111.636 214.55 107.501 A 82.507 82.507 0 0 1 219.064 102.957 Q 221.487 100.687 224.421 98.223 A 197.758 197.758 0 0 1 230.8 93.101 Z M 40.969 66.406 A 2.564 2.564 0 0 0 39.5 66.001 Q 38.6 66.001 37.7 66.101 Q 36.8 66.201 36 66.301 Q 31.1 67.001 27.1 67.001 A 27.307 27.307 0 0 1 26.768 66.999 Q 25.773 66.987 25 66.901 A 99.703 99.703 0 0 0 23.731 66.818 Q 21.731 66.701 20.2 66.701 A 1.775 1.775 0 0 0 19.8 66.748 Q 19.14 66.901 18.381 67.545 A 8.2 8.2 0 0 0 17.7 68.201 A 12.714 12.714 0 0 0 17.099 68.894 A 14.05 14.05 0 0 0 15.35 71.701 A 14.72 14.72 0 0 0 15.28 71.851 Q 14.404 73.75 14.5 75.001 A 231.116 231.116 0 0 1 15.745 80.964 A 193.785 193.785 0 0 1 17.35 90.401 A 98.157 98.157 0 0 1 17.415 90.858 A 106.247 106.247 0 0 1 18.4 105.501 A 56.187 56.187 0 0 1 18.324 108.548 Q 18.072 113.168 16.982 114.886 A 1.861 1.861 0 0 1 15.4 115.901 Q 14.05 115.901 13.341 108.177 A 116.118 116.118 0 0 1 13.1 105.051 A 359.188 359.188 0 0 1 13.089 104.882 A 328.402 328.402 0 0 1 12.4 83.901 Q 12.4 76.501 13.4 66.701 A 179.38 179.38 0 0 0 15.696 64.397 Q 41.5 38.021 41.5 15.501 A 33.422 33.422 0 0 0 41.382 12.635 Q 41.186 10.354 40.662 8.431 A 15.529 15.529 0 0 0 38.85 4.201 A 11.636 11.636 0 0 0 38.364 3.49 Q 37.155 1.855 35.572 0.987 A 8.323 8.323 0 0 0 31.5 0.001 A 11.515 11.515 0 0 0 28.788 0.324 Q 23.64 1.567 19.028 7.592 A 44.915 44.915 0 0 0 15.55 12.951 A 80.564 80.564 0 0 0 12.578 18.83 Q 9.877 24.74 7.698 31.795 A 155.054 155.054 0 0 0 4.15 45.651 Q 0 65.401 0 84.601 Q 0 105.201 3.05 115.401 Q 4.23 119.346 6.03 121.765 A 8.709 8.709 0 0 0 13.3 125.601 A 9.618 9.618 0 0 0 20.098 122.907 A 14.408 14.408 0 0 0 22.5 119.901 A 15.999 15.999 0 0 0 22.625 119.694 Q 24.98 115.726 25.692 109.364 A 53.781 53.781 0 0 0 26 103.401 A 72.868 72.868 0 0 0 25.909 99.9 Q 25.817 98.007 25.634 95.829 A 173.83 173.83 0 0 0 25.15 90.951 Q 24.3 83.401 23 77.201 A 78.893 78.893 0 0 0 24.457 77.479 Q 27.904 78.101 29.9 78.101 A 36.857 36.857 0 0 0 30.781 78.091 Q 35.718 77.973 38.538 76.507 A 6.603 6.603 0 0 0 42.3 70.201 A 9.695 9.695 0 0 0 42.219 68.892 Q 41.971 67.083 40.969 66.406 Z M 390.549 72.493 A 2.225 2.225 0 0 0 388.8 71.701 A 3.137 3.137 0 0 0 386.94 72.319 A 4.764 4.764 0 0 0 386.1 73.101 Q 382.938 76.951 380.319 79.407 A 30.598 30.598 0 0 1 378.05 81.351 A 14.787 14.787 0 0 1 376.796 82.218 A 11.448 11.448 0 0 1 370.7 84.001 A 10.59 10.59 0 0 1 369.24 83.904 A 7.394 7.394 0 0 1 364.55 81.451 A 7.776 7.776 0 0 1 363.45 79.822 Q 362.822 78.587 362.537 77.023 A 15.759 15.759 0 0 1 362.3 74.201 Q 362.3 70.201 363.25 66.501 Q 364.2 62.801 365.55 60.551 A 10.723 10.723 0 0 1 366.05 59.787 Q 367.125 58.301 368.1 58.301 A 2.979 2.979 0 0 1 368.341 58.311 Q 368.615 58.333 368.837 58.408 A 1.251 1.251 0 0 1 369.5 58.901 A 2.165 2.165 0 0 1 369.538 58.96 Q 369.791 59.367 369.96 60.026 A 8.058 8.058 0 0 1 370.1 60.701 A 9.282 9.282 0 0 0 370.307 61.447 Q 370.485 61.995 370.716 62.438 A 4.233 4.233 0 0 0 371.3 63.301 A 1.899 1.899 0 0 0 371.605 63.576 Q 372.466 64.201 374.3 64.201 A 4.16 4.16 0 0 0 375.566 64.009 Q 376.512 63.709 377.329 62.941 A 7.365 7.365 0 0 0 378.4 61.651 Q 379.569 59.898 379.934 57.223 A 19.42 19.42 0 0 0 380.1 54.601 A 13.217 13.217 0 0 0 380.017 53.079 Q 379.887 51.962 379.555 51.061 A 5.451 5.451 0 0 0 378.05 48.801 Q 376.641 47.564 374.357 47.177 A 13.542 13.542 0 0 0 372.1 47.001 A 13.891 13.891 0 0 0 368.233 47.566 A 18.056 18.056 0 0 0 364.75 49.001 Q 361 51.001 358 55.001 Q 356.2 51.101 352.8 49.051 A 14.124 14.124 0 0 0 350.881 48.083 A 14.779 14.779 0 0 0 345.2 47.001 Q 340.3 47.001 337.2 49.901 A 9.401 9.401 0 0 0 334.5 54.52 A 13.489 13.489 0 0 0 334.1 57.901 A 12.658 12.658 0 0 0 334.201 59.56 Q 334.463 61.534 335.4 62.651 A 4.156 4.156 0 0 0 337.29 63.955 A 5.038 5.038 0 0 0 338.9 64.201 Q 341.4 64.201 342.4 63.251 Q 343.4 62.301 344 60.701 Q 344.5 59.401 345 58.851 Q 345.356 58.46 346.014 58.347 A 3.472 3.472 0 0 1 346.6 58.301 Q 347.9 58.301 348.8 60.751 A 12.21 12.21 0 0 1 349.172 61.963 Q 349.442 63.025 349.573 64.263 A 24.013 24.013 0 0 1 349.7 66.801 A 34.985 34.985 0 0 1 349.538 70.214 A 27.95 27.95 0 0 1 348.55 75.401 A 28.218 28.218 0 0 1 348.008 77.056 Q 347.532 78.367 346.973 79.451 A 13.47 13.47 0 0 1 345.65 81.551 Q 343.9 83.801 342 83.801 A 3.704 3.704 0 0 1 341.352 83.748 Q 339.875 83.485 339.516 81.933 A 5.035 5.035 0 0 1 339.4 80.801 A 4 4 0 0 1 339.404 80.651 Q 339.427 80.058 339.598 77.942 A 487.233 487.233 0 0 1 339.7 76.701 A 71.629 71.629 0 0 0 339.765 76.096 Q 339.86 75.165 339.888 74.605 A 8.222 8.222 0 0 0 339.9 74.201 Q 339.9 72.044 337.603 71.61 A 7.055 7.055 0 0 0 336.3 71.501 Q 332.1 71.501 329.8 74.601 Q 328.345 76.563 327.81 79.285 A 17.738 17.738 0 0 0 327.5 82.701 A 15.236 15.236 0 0 0 327.7 85.22 A 10.732 10.732 0 0 0 330.7 91.201 A 10.537 10.537 0 0 0 335.744 93.988 A 15.282 15.282 0 0 0 339.4 94.401 A 15.386 15.386 0 0 0 348.733 91.3 A 21.957 21.957 0 0 0 352.9 87.201 Q 355.2 90.701 359.15 92.601 Q 363.1 94.501 368.2 94.501 Q 374.8 94.501 380.05 91.051 Q 385.3 87.601 389.7 82.401 A 6.749 6.749 0 0 0 390.603 81.052 Q 391.6 79.099 391.6 76.201 Q 391.6 74.971 391.343 74.049 A 4.376 4.376 0 0 0 390.85 72.901 A 3.165 3.165 0 0 0 390.549 72.493 Z M 183.449 72.493 A 2.225 2.225 0 0 0 181.7 71.701 A 3.137 3.137 0 0 0 179.84 72.319 A 4.764 4.764 0 0 0 179 73.101 Q 174.3 78.701 171.5 81.101 Q 170.122 82.282 168.768 82.882 A 6.792 6.792 0 0 1 166 83.501 Q 163.9 83.501 162.55 81.001 A 8.713 8.713 0 0 1 162.042 79.852 Q 161.119 77.326 160.8 72.701 A 221.206 221.206 0 0 0 167.18 60.964 A 180.382 180.382 0 0 0 175.5 41.901 A 117.974 117.974 0 0 0 177.677 35.41 Q 179.263 30.157 180.092 25.428 A 56.471 56.471 0 0 0 181 15.701 Q 181 10.764 179.887 7.389 A 12.507 12.507 0 0 0 178.15 3.901 A 12.179 12.179 0 0 0 177.308 2.868 A 8.247 8.247 0 0 0 171 0.001 A 10.253 10.253 0 0 0 167.614 0.565 Q 162.972 2.176 159.451 8.394 A 41.239 41.239 0 0 0 156.95 13.751 A 87.772 87.772 0 0 0 155.476 17.844 Q 153.372 24.16 151.917 31.538 A 160.294 160.294 0 0 0 149.7 46.901 Q 142.3 47.701 136.35 52.051 Q 130.4 56.401 127 63.251 Q 123.6 70.101 123.6 78.101 A 22.532 22.532 0 0 0 124.046 82.696 A 15.744 15.744 0 0 0 127.55 89.951 Q 131.5 94.501 137.6 94.501 A 17.536 17.536 0 0 0 140.123 94.325 A 13.563 13.563 0 0 0 144.95 92.701 Q 148.1 90.901 152.3 85.601 Q 153.441 88.139 154.874 89.953 A 11.054 11.054 0 0 0 163.9 94.501 Q 168.7 94.501 173.6 90.951 A 44.897 44.897 0 0 0 174.962 89.924 A 48.936 48.936 0 0 0 182.6 82.401 A 6.749 6.749 0 0 0 183.503 81.052 Q 184.5 79.099 184.5 76.201 Q 184.5 74.971 184.243 74.049 A 4.376 4.376 0 0 0 183.75 72.901 A 3.165 3.165 0 0 0 183.449 72.493 Z M 285.526 93.918 A 5.504 5.504 0 0 0 288.1 94.501 A 10.201 10.201 0 0 0 289.087 94.455 Q 291.441 94.226 292.65 92.851 A 5.867 5.867 0 0 0 293.3 91.928 Q 294.354 90.117 295.2 86.501 Q 296.7 80.401 299.15 74.901 Q 300.681 71.464 302.173 68.866 A 37.022 37.022 0 0 1 303.95 66.051 A 26.699 26.699 0 0 1 304.544 65.235 Q 306.469 62.701 307.6 62.701 A 1.452 1.452 0 0 1 307.66 62.702 Q 308.491 62.736 308.658 63.737 A 3.445 3.445 0 0 1 308.7 64.301 A 10.115 10.115 0 0 1 308.696 64.58 Q 308.645 66.438 307.938 70.262 A 135.129 135.129 0 0 1 307.4 73.001 A 187.798 187.798 0 0 0 307.202 74.033 Q 306.314 78.741 306.082 81.387 A 18.845 18.845 0 0 0 306 83.001 A 21.172 21.172 0 0 0 306.088 84.972 Q 306.25 86.708 306.712 88.138 A 9.508 9.508 0 0 0 308.6 91.551 Q 310.367 93.556 313.289 94.199 A 14.03 14.03 0 0 0 316.3 94.501 Q 322.6 94.501 327.55 91.101 Q 332.5 87.701 336.8 82.401 A 6.749 6.749 0 0 0 337.703 81.052 Q 338.7 79.099 338.7 76.201 Q 338.7 74.971 338.443 74.049 A 4.376 4.376 0 0 0 337.95 72.901 A 3.165 3.165 0 0 0 337.649 72.493 A 2.225 2.225 0 0 0 335.9 71.701 A 3.137 3.137 0 0 0 334.04 72.319 A 4.764 4.764 0 0 0 333.2 73.101 Q 328.6 78.601 325.85 81.051 A 18.563 18.563 0 0 1 325.285 81.535 Q 323.81 82.747 322.564 83.212 A 4.196 4.196 0 0 1 321.1 83.501 A 4.066 4.066 0 0 1 320.971 83.499 Q 318.765 83.429 318.315 80.936 A 8.127 8.127 0 0 1 318.2 79.501 A 12.459 12.459 0 0 1 318.237 78.6 Q 318.408 76.275 319.36 71.525 A 209.257 209.257 0 0 1 320.1 68.001 Q 321.767 60.272 322.171 56.16 A 23.598 23.598 0 0 0 322.3 53.901 A 9.576 9.576 0 0 0 322.023 51.494 Q 321.257 48.55 318.372 47.723 A 9.357 9.357 0 0 0 315.8 47.401 A 10.337 10.337 0 0 0 314.065 47.552 Q 311.487 47.991 308.55 49.701 A 18.98 18.98 0 0 0 306.229 51.31 Q 303.402 53.579 300.5 57.401 A 39.284 39.284 0 0 0 298.852 59.751 Q 295.723 64.565 293.1 71.401 A 103.09 103.09 0 0 1 293.37 68.788 Q 293.688 66.064 294.1 64.001 A 111.739 111.739 0 0 1 294.514 62.029 Q 295.013 59.751 295.7 57.001 A 131.293 131.293 0 0 0 296.205 55.062 Q 296.933 52.167 297.128 50.692 A 7.037 7.037 0 0 0 297.2 49.801 Q 297.2 49.139 297.021 48.679 A 1.541 1.541 0 0 0 296.4 47.901 A 2.213 2.213 0 0 0 295.984 47.703 Q 295.154 47.401 293.6 47.401 A 17.019 17.019 0 0 0 291.789 47.492 Q 290.697 47.609 289.788 47.877 A 7.202 7.202 0 0 0 287.85 48.751 A 6.654 6.654 0 0 0 285.737 51.044 A 9.683 9.683 0 0 0 284.9 53.001 A 76.942 76.942 0 0 0 284.344 54.837 A 81.944 81.944 0 0 0 281.2 77.701 A 85.718 85.718 0 0 0 281.252 80.753 Q 281.403 85.003 282.001 87.872 A 16.809 16.809 0 0 0 282.75 90.501 A 8.457 8.457 0 0 0 283.491 91.99 Q 284.319 93.291 285.526 93.918 Z M 87.359 64.087 A 2.055 2.055 0 0 0 85.7 63.301 A 4.008 4.008 0 0 0 85.433 63.31 Q 84.928 63.344 84.3 63.501 A 89.607 89.607 0 0 1 81.293 64.235 Q 76.676 65.273 73.1 65.501 A 27.657 27.657 0 0 0 72.753 63.14 A 21.86 21.86 0 0 0 67.65 52.551 A 14.981 14.981 0 0 0 61.238 48.218 A 17.814 17.814 0 0 0 55.4 47.301 Q 49.2 47.301 44.1 50.651 A 21.614 21.614 0 0 0 40.451 53.665 A 24.072 24.072 0 0 0 36.1 59.951 A 27.572 27.572 0 0 0 34.007 65.944 A 34.036 34.036 0 0 0 33.2 73.501 A 28.272 28.272 0 0 0 33.203 73.937 A 24.553 24.553 0 0 0 35.4 83.901 Q 37.6 88.701 41.85 91.601 A 16.069 16.069 0 0 0 47.022 93.906 A 20.705 20.705 0 0 0 52.1 94.501 A 18.053 18.053 0 0 0 58.651 93.307 A 19.822 19.822 0 0 0 64.8 89.451 A 22.918 22.918 0 0 0 69.706 83.14 A 28.513 28.513 0 0 0 72.3 76.001 A 52.306 52.306 0 0 0 76.71 75.635 A 42.89 42.89 0 0 0 85.5 73.601 A 3.589 3.589 0 0 0 87.752 71.567 Q 88.391 70.19 88.4 67.967 A 15.748 15.748 0 0 0 88.4 67.901 A 10.564 10.564 0 0 0 88.384 67.317 Q 88.344 66.591 88.201 65.967 A 5.429 5.429 0 0 0 87.7 64.601 A 3.16 3.16 0 0 0 87.359 64.087 Z M 132.459 64.087 A 2.055 2.055 0 0 0 130.8 63.301 A 4.008 4.008 0 0 0 130.533 63.31 Q 130.028 63.344 129.4 63.501 A 89.607 89.607 0 0 1 126.393 64.235 Q 121.776 65.273 118.2 65.501 A 27.657 27.657 0 0 0 117.853 63.14 A 21.86 21.86 0 0 0 112.75 52.551 A 14.981 14.981 0 0 0 106.338 48.218 A 17.814 17.814 0 0 0 100.5 47.301 Q 94.3 47.301 89.2 50.651 A 21.614 21.614 0 0 0 85.551 53.665 A 24.072 24.072 0 0 0 81.2 59.951 A 27.572 27.572 0 0 0 79.107 65.944 A 34.036 34.036 0 0 0 78.3 73.501 A 28.272 28.272 0 0 0 78.303 73.937 A 24.553 24.553 0 0 0 80.5 83.901 Q 82.7 88.701 86.95 91.601 A 16.069 16.069 0 0 0 92.122 93.906 A 20.705 20.705 0 0 0 97.2 94.501 A 18.053 18.053 0 0 0 103.751 93.307 A 19.822 19.822 0 0 0 109.9 89.451 A 22.918 22.918 0 0 0 114.806 83.14 A 28.513 28.513 0 0 0 117.4 76.001 A 52.306 52.306 0 0 0 121.81 75.635 A 42.89 42.89 0 0 0 130.6 73.601 A 3.589 3.589 0 0 0 132.852 71.567 Q 133.491 70.19 133.5 67.967 A 15.748 15.748 0 0 0 133.5 67.901 A 10.564 10.564 0 0 0 133.484 67.317 Q 133.444 66.591 133.301 65.967 A 5.429 5.429 0 0 0 132.8 64.601 A 3.16 3.16 0 0 0 132.459 64.087 Z M 264.984 94.052 A 14.405 14.405 0 0 0 268.7 94.501 A 13.017 13.017 0 0 0 271.683 94.147 Q 276.798 92.946 282.35 87.677 A 57.215 57.215 0 0 0 287.2 82.401 A 6.749 6.749 0 0 0 288.103 81.052 Q 289.1 79.099 289.1 76.201 Q 289.1 74.971 288.843 74.049 A 4.376 4.376 0 0 0 288.35 72.901 A 3.165 3.165 0 0 0 288.049 72.493 A 2.225 2.225 0 0 0 286.3 71.701 A 3.137 3.137 0 0 0 284.44 72.319 A 4.764 4.764 0 0 0 283.6 73.101 A 184.196 184.196 0 0 1 282.135 74.838 Q 279.826 77.541 278.061 79.366 A 42.627 42.627 0 0 1 276.4 81.001 Q 273.7 83.501 271.9 83.501 A 3.986 3.986 0 0 1 271.363 83.466 Q 270.561 83.357 269.993 82.907 A 2.931 2.931 0 0 1 269.2 81.901 Q 268.4 80.301 268.4 77.301 A 18.033 18.033 0 0 1 268.445 76.096 Q 268.658 72.957 269.865 66.874 A 243.091 243.091 0 0 1 270.8 62.401 A 333.394 333.394 0 0 0 270.854 62.144 Q 272.298 55.201 272.612 52.18 A 13.831 13.831 0 0 0 272.7 50.801 Q 272.7 48.065 269.398 47.531 A 11.317 11.317 0 0 0 267.6 47.401 Q 265.486 47.401 264.111 47.894 A 4.516 4.516 0 0 0 262.8 48.601 A 4.047 4.047 0 0 0 262.525 48.843 Q 261.622 49.71 260.954 51.359 A 15.701 15.701 0 0 0 260.4 53.001 A 96.723 96.723 0 0 0 259.141 57.71 A 115.141 115.141 0 0 0 257.45 66.151 Q 256.695 70.778 256.436 74.306 A 46.575 46.575 0 0 0 256.3 77.701 A 35.4 35.4 0 0 0 256.386 80.206 Q 256.803 86.086 259.25 89.901 A 9.47 9.47 0 0 0 264.984 94.052 Z M 169.9 9.801 A 1.501 1.501 0 0 0 168.876 10.292 Q 167.819 11.304 166.762 14.405 A 41.745 41.745 0 0 0 166.1 16.551 Q 164.2 23.301 162.85 34.201 Q 161.5 45.101 160.9 57.001 A 187.855 187.855 0 0 0 166.314 44.036 Q 171.134 31.043 171.939 21.492 A 43.99 43.99 0 0 0 172.1 17.801 Q 172.1 14.001 171.45 11.901 A 8.693 8.693 0 0 0 171.198 11.188 Q 170.704 9.979 170.084 9.824 A 0.758 0.758 0 0 0 169.9 9.801 Z M 29.4 9.901 Q 27.6 9.901 24.95 16.001 Q 22.3 22.101 19.7 32.151 A 247.056 247.056 0 0 0 16.194 47.873 A 282.802 282.802 0 0 0 15.2 53.401 A 78.429 78.429 0 0 0 23.666 41.883 A 65.753 65.753 0 0 0 27.5 34.451 A 58.244 58.244 0 0 0 30.459 26.072 Q 31.736 21.248 31.883 16.759 A 35.708 35.708 0 0 0 31.9 16.001 A 22.746 22.746 0 0 0 31.826 14.085 Q 31.47 9.901 29.4 9.901 Z M 55.5 57.901 L 55 57.901 A 7.373 7.373 0 0 0 49.482 60.346 A 11.395 11.395 0 0 0 48.35 61.751 A 13.286 13.286 0 0 0 46.61 65.48 Q 45.7 68.5 45.7 72.601 A 22.559 22.559 0 0 0 45.905 75.748 Q 46.364 78.996 47.85 81.001 A 8.845 8.845 0 0 0 49.267 82.53 A 5.53 5.53 0 0 0 52.9 83.901 A 7.088 7.088 0 0 0 57.926 81.839 A 9.727 9.727 0 0 0 58.45 81.301 A 10.806 10.806 0 0 0 60.236 78.529 Q 60.811 77.273 61.2 75.74 A 22.846 22.846 0 0 0 61.6 73.801 Q 58.5 71.701 56.85 68.301 Q 55.2 64.901 55.2 61.101 Q 55.2 59.501 55.5 57.901 Z M 100.6 57.901 L 100.1 57.901 A 7.373 7.373 0 0 0 94.582 60.346 A 11.395 11.395 0 0 0 93.45 61.751 A 13.286 13.286 0 0 0 91.71 65.48 Q 90.8 68.5 90.8 72.601 A 22.559 22.559 0 0 0 91.005 75.748 Q 91.464 78.996 92.95 81.001 A 8.845 8.845 0 0 0 94.367 82.53 A 5.53 5.53 0 0 0 98 83.901 A 7.088 7.088 0 0 0 103.026 81.839 A 9.727 9.727 0 0 0 103.55 81.301 A 10.806 10.806 0 0 0 105.336 78.529 Q 105.911 77.273 106.3 75.74 A 22.846 22.846 0 0 0 106.7 73.801 Q 103.6 71.701 101.95 68.301 Q 100.3 64.901 100.3 61.101 Q 100.3 59.501 100.6 57.901 Z M 141.1 84.401 A 5.087 5.087 0 0 0 143.238 83.911 Q 143.939 83.589 144.64 83.056 A 9.612 9.612 0 0 0 144.9 82.851 A 12.592 12.592 0 0 0 146.044 81.774 Q 147.214 80.543 148.674 78.548 A 65.559 65.559 0 0 0 149.7 77.101 Q 148.7 71.701 148.7 65.001 Q 148.7 62.601 148.9 57.201 A 15.62 15.62 0 0 0 141.884 61.757 A 21.405 21.405 0 0 0 139.75 64.551 Q 136.1 70.201 136.1 77.101 A 15.776 15.776 0 0 0 136.291 79.674 Q 137.049 84.237 140.824 84.395 A 6.571 6.571 0 0 0 141.1 84.401 Z M 217.2 129.801 A 3.001 3.001 0 0 0 218.852 129.239 Q 220.577 128.099 222.497 124.647 A 35.587 35.587 0 0 0 222.9 123.901 A 34.824 34.824 0 0 0 224.612 120.013 Q 226.759 114.317 228.7 104.901 A 90.792 90.792 0 0 0 224.365 108.842 Q 220.123 112.974 217.825 116.535 A 26.897 26.897 0 0 0 217.75 116.651 Q 214.4 121.901 214.4 125.901 A 7.999 7.999 0 0 0 214.511 127.3 Q 214.948 129.745 217.1 129.8 A 3.914 3.914 0 0 0 217.2 129.801 Z M 267.191 40.629 A 14.478 14.478 0 0 0 269.5 40.801 A 12.934 12.934 0 0 0 272.284 40.517 A 8.852 8.852 0 0 0 276.4 38.451 A 7.555 7.555 0 0 0 278.619 34.922 A 9.921 9.921 0 0 0 279 32.101 A 8.542 8.542 0 0 0 278.944 31.107 A 5.858 5.858 0 0 0 276.7 27.001 A 7.5 7.5 0 0 0 276.212 26.65 Q 274.931 25.804 273.266 25.452 A 12.408 12.408 0 0 0 270.7 25.201 A 12.993 12.993 0 0 0 269.083 25.299 A 9.725 9.725 0 0 0 263.85 27.551 A 9.427 9.427 0 0 0 263.437 27.925 A 7.313 7.313 0 0 0 261.1 33.401 A 9.57 9.57 0 0 0 261.305 35.437 A 6.381 6.381 0 0 0 263.2 38.851 Q 264.677 40.222 267.191 40.629 Z" vector-effect="non-scaling-stroke"/></g></svg>